<svg xmlns="http://www.w3.org/2000/svg"  viewBox="0 0 48 48" width="48px" height="48px" baseProfile="basic"><path d="M40,22H8v20c0,1.657,1.343,3,3,3h25c2.209,0,4-1.791,4-4V22z"/><path fill="#fff" d="M35,42H11c-1.105,0-2-0.895-2-2V6h30v32C39,40.209,37.209,42,35,42z"/><path d="M35,43H11c-1.654,0-3-1.346-3-3V6c0-0.552,0.447-1,1-1h30c0.553,0,1,0.448,1,1v32C40,40.757,37.757,43,35,43z M10,7v33	c0,0.551,0.448,1,1,1h24c1.654,0,3-1.346,3-3V7H10z"/><rect width="2" height="36" x="14" y="6"/><path d="M24.888,16.918L23,15.974l-1.888,0.944C20.601,17.173,20,16.802,20,16.231V6h6v10.231	C26,16.802,25.399,17.173,24.888,16.918z"/></svg>